# xmcd
#
# Track frame offsets: 
#        150
#        13379
#        26009
#        37101
#        51976
#        65828
#        78801
#        92212
#        104557
#        116207
#        132333
#        142886
#        154037
#        166561
#        177882
#        192537
#        204604
#        219689
#        233004
#        246817
#        261353
#        273881
#        287832
#        300880
#
# Disc length: 4253 seconds
#
# Revision: 5
# Processed by: cddbd v1.5.2PL0 Copyright (c) Steve Scherf et al.
# Submitted via: ExactAudioCopy v1.1
#
DISCID=61109b18
DTITLE=Various Artist - Soul Satisfaction 4
DYEAR=2003
DGENRE=Soul
TTITLE0=Sherri Taylor and Singing Sammy Ward - Oh Lover
TTITLE1=Labrenda Ben and The Beljeans - The Chaperone
TTITLE2=The Satintones - My Kind Of Love
TTITLE3=Mable John - Who Wouldn't Love A Man Like That
TTITLE4=The Marvelettes - You're My Remedy
TTITLE5=Stevie Wonder - Music Talk
TTITLE6=The Marvelettes - Your Cheating Ways
TTITLE7=Stevie Wonder - Love A Go Go
TTITLE8=The Four Tops - Then
TTITLE9=The Isley Brothers - Seek And You Shall Find
TTITLE10=Edwin Starr - I Have Faith In You Baby
TTITLE11=Marvin Gaye - So Long
TTITLE12=The Monitors - Time Is Passing By
TTITLE13=Chris Clark - I Love You
TTITLE14=The Fantastic Four - I Feel Like I'm Falling In Love Again
TTITLE15=Martha Reeves and The Vandellas - Show Me The Way
TTITLE16=The Four Tops - Can't Seem To Get You Out Of My Mind
TTITLE17=Stevie Wonder - I'd Be A Fool Right Now
TTITLE18=Chuck Jackson - Ain't No Sun Since You've Been Gone
TTITLE19=Gladys Knight and The Pips - The Stranger
TTITLE20=Diana Ross and The Supremes - Loving You Is Better Than Ever
TTITLE21=David Ruffin - You Can Come Right Back To Me
TTITLE22=Bottom and Co - Gonna Find A True Love
TTITLE23=The Dynamic Superiors - One Nighter
EXTD=
EXTT0=
EXTT1=
EXTT2=
EXTT3=
EXTT4=
EXTT5=
EXTT6=
EXTT7=
EXTT8=
EXTT9=
EXTT10=
EXTT11=
EXTT12=
EXTT13=
EXTT14=
EXTT15=
EXTT16=
EXTT17=
EXTT18=
EXTT19=
EXTT20=
EXTT21=
EXTT22=
EXTT23=
PLAYORDER=
